<svg width="418" height="97" viewBox="0 0 418 97" fill="none" xmlns="http://www.w3.org/2000/svg">
<mask id="path-1-outside-1_66_51" maskUnits="userSpaceOnUse" x="-0.848633" y="-0.999756" width="418" height="98" fill="black">
<rect fill="white" x="-0.848633" y="-0.999756" width="418" height="98"/>
<path d="M110.061 3.15352C135.079 1.10733 156.995 19.7883 158.949 44.8225C160.902 69.8564 142.147 91.7122 117.114 93.5725C92.2119 95.4233 70.5032 76.7811 68.5607 51.8776C66.6181 26.9745 85.1736 5.18922 110.061 3.15352ZM115.147 89.3215C137.776 88.5292 155.462 69.5106 154.62 46.8769C153.774 24.2429 134.722 6.59389 112.099 7.48849C89.5477 8.38013 71.973 27.3646 72.8135 49.9262C73.6537 72.4874 92.592 90.1112 115.147 89.3215Z"/>
<path d="M269.819 3.14208C294.812 1.37617 316.496 20.2381 318.22 45.2448C319.94 70.2518 301.048 91.9096 276.045 93.589C251.107 95.2641 229.522 76.4209 227.801 51.4751C226.084 26.5294 244.884 4.90341 269.819 3.14208ZM275.393 89.2779C297.879 87.9919 315.103 68.7678 313.927 46.2649C312.75 23.762 293.616 6.44117 271.113 7.51016C248.459 8.58636 231 27.8869 232.186 50.5435C233.372 73.2005 252.749 90.5725 275.393 89.2779Z"/>
<path d="M170.539 4.72788C180.868 5.69525 195.133 2.12965 203.244 10.2361C206.72 13.7128 207.992 18.8542 207.91 23.6429C207.772 31.3327 203.997 34.9382 199.026 39.7836C207.763 43.2374 216.25 49.1105 218.698 58.7629C220.592 66.2133 219.383 74.5214 215.499 81.1602C206.186 96.8226 185.364 90.8322 170.297 92.6034C170.113 84.6356 169.75 6.09354 170.539 4.72788ZM208.841 82.1095C212.799 77.157 215.031 73.2186 215.106 66.8706C215.375 44.8801 190.493 41.4633 174.921 34.5144C174.786 34.4642 174.652 34.4141 174.521 34.3642C174.203 36.6173 174.387 44.9106 174.39 47.6216L174.413 73.3026C174.413 77.5254 174.59 84.1452 174.242 88.2104C188.222 88.3773 197.293 90.8165 208.841 82.1095ZM174.35 29.8752C179.033 31.1294 189.972 35.5208 194.838 37.3903C196.47 36.1259 198.58 34.6177 199.937 33.1133C202.614 29.5707 205.082 26.2831 204.413 21.5442C203.922 18.0875 201.595 13.6292 198.787 11.6011C192.305 6.92486 181.937 9.05202 174.291 8.4436C174.537 14.513 174.603 23.7904 174.35 29.8752Z"/>
<path d="M55.5935 4.50855C56.7375 4.54002 58.6657 4.44331 59.5102 4.98486C59.9198 8.88908 59.7451 15.5341 59.7454 19.6904L59.7225 92.1034C58.3626 92.069 56.8735 92.1602 55.5027 92.2162C55.7433 86.7647 55.5162 80.1708 55.605 74.5089C40.5043 74.698 22.5353 74.9563 7.56677 74.4473C7.88103 80.2633 7.32591 86.6874 7.7552 92.1854C6.24156 92.0553 4.67418 92.0743 3.15137 92.0645C3.35585 87.9455 3.10092 83.7059 3.22839 79.5821C4.00045 54.5757 3.20087 29.6673 3.25985 4.6377C4.68763 4.57476 6.42574 4.31613 7.51304 5.23302C7.79126 6.69407 7.67689 11.1326 7.67721 12.9615L7.67983 28.6164L7.87448 56.7153C7.87874 59.9357 8.10911 67.5973 7.4062 70.4683C23.0777 70.5594 40.0908 70.0667 55.5968 70.5765C55.2055 64.9207 55.5568 54.8209 55.5607 48.7056L55.5935 4.50855Z"/>
<path d="M328.488 40.7521C327.879 40.7521 327.366 40.5429 326.947 40.1245C326.529 39.7061 326.32 39.2116 326.32 38.641C326.32 38.0705 326.529 37.576 326.947 37.1576C327.366 36.7392 327.879 36.53 328.488 36.53C329.096 36.53 329.61 36.7392 330.028 37.1576C330.485 37.576 330.713 38.0705 330.713 38.641C330.713 39.2116 330.485 39.7061 330.028 40.1245C329.61 40.5429 329.096 40.7521 328.488 40.7521ZM328.488 56.7849C327.879 56.7849 327.366 56.5757 326.947 56.1572C326.529 55.7388 326.32 55.2443 326.32 54.6738C326.32 54.1032 326.529 53.6087 326.947 53.1903C327.366 52.7719 327.879 52.5627 328.488 52.5627C329.096 52.5627 329.61 52.7719 330.028 53.1903C330.485 53.6087 330.713 54.1032 330.713 54.6738C330.713 55.2443 330.485 55.7388 330.028 56.1572C329.61 56.5757 329.096 56.7849 328.488 56.7849Z"/>
<path d="M339.576 64.8202V28.6466H343.056V64.8202H339.576Z"/>
<path d="M356.239 61.3398C355.364 61.3398 354.47 61.2066 353.557 60.9404C352.682 60.7121 351.922 60.1606 351.275 59.2857C350.666 58.3728 350.362 56.9655 350.362 55.0636V52.3249C350.362 50.423 350.933 48.9015 352.074 47.7604C353.253 46.5812 354.851 45.5352 356.867 44.6223C358.16 43.9757 359.206 43.4051 360.005 42.9106C360.841 42.4162 361.469 41.8646 361.887 41.256C362.306 40.6474 362.515 39.8296 362.515 38.8026V37.6044C362.515 36.6915 362.325 35.9878 361.945 35.4933C361.564 34.9989 361.051 34.6565 360.404 34.4663C359.795 34.2762 359.149 34.1811 358.464 34.1811C356.752 34.1811 355.63 34.6565 355.098 35.6075C354.565 36.5204 354.299 37.8897 354.299 39.7155V42.1119H351.047V39.3732C351.047 37.9658 351.237 36.7296 351.617 35.6645C351.998 34.5614 352.72 33.7056 353.786 33.097C354.851 32.4504 356.41 32.127 358.464 32.127C360.632 32.127 362.249 32.3743 363.314 32.8688C364.417 33.3633 365.14 34.0669 365.482 34.9798C365.862 35.8927 366.053 36.9768 366.053 38.232V60.9404H362.572L362.515 57.4029C362.059 58.6962 361.241 59.6851 360.062 60.3698C358.883 61.0164 357.608 61.3398 356.239 61.3398ZM357.551 58.9434C359.263 58.9434 360.499 58.3348 361.26 57.1176C362.059 55.9004 362.458 54.2838 362.458 52.2678V43.253C362.078 43.8616 361.45 44.4131 360.575 44.9076C359.7 45.4021 358.806 45.8966 357.894 46.3911C356.6 47.1518 355.592 47.9506 354.87 48.7874C354.185 49.5862 353.843 50.7083 353.843 52.1537V54.3789C353.843 55.7483 354.033 56.7562 354.413 57.4029C354.794 58.0495 355.269 58.4679 355.84 58.6581C356.41 58.8483 356.981 58.9434 357.551 58.9434Z"/>
<path d="M382.996 64.9058C381.208 64.9058 379.877 64.6015 379.002 63.9929C378.165 63.3462 377.594 62.6425 377.29 61.8818L377.119 64.5064H374.608V28.561H378.089V38.6029C378.545 37.652 379.211 36.9483 380.086 36.4918C380.999 35.9973 382.14 35.7501 383.509 35.7501C384.955 35.7501 386.172 35.9783 387.161 36.4348C388.15 36.8912 388.891 37.633 389.386 38.66C389.88 39.687 390.128 41.1134 390.128 42.9392V56.9179C390.128 58.4774 389.976 59.7707 389.671 60.7977C389.405 61.8247 388.987 62.6425 388.416 63.2511C387.845 63.8597 387.104 64.2781 386.191 64.5064C385.316 64.7726 384.251 64.9058 382.996 64.9058ZM382.368 62.3953C383.433 62.3953 384.27 62.2431 384.879 61.9388C385.487 61.6345 385.925 61.121 386.191 60.3983C386.457 59.6376 386.59 58.5916 386.59 57.2602V43.0533C386.59 41.1514 386.267 39.8581 385.62 39.1735C385.012 38.4888 383.928 38.1465 382.368 38.1465C380.77 38.1465 379.667 38.5458 379.059 39.3446C378.45 40.1434 378.146 41.3036 378.146 42.8251V56.9179C378.146 58.8578 378.469 60.2652 379.116 61.1401C379.801 61.9769 380.885 62.3953 382.368 62.3953Z"/>
<path d="M406.294 61.2827C404.24 61.2827 402.642 61.0355 401.501 60.541C400.36 60.0084 399.561 59.1906 399.105 58.0876C398.648 56.9464 398.42 55.444 398.42 53.5801V51.1267H402.015V54.3789C402.015 56.1667 402.319 57.4029 402.928 58.0876C403.536 58.7722 404.639 59.1146 406.237 59.1146C407.644 59.1146 408.671 58.7722 409.318 58.0876C410.003 57.4029 410.345 56.2427 410.345 54.6071V53.0096C410.345 52.1347 410.212 51.393 409.946 50.7844C409.679 50.1377 409.166 49.5482 408.405 49.0156C407.682 48.4831 406.655 47.9506 405.324 47.4181C404.069 46.9236 402.966 46.3911 402.015 45.8205C401.064 45.2499 400.303 44.5272 399.733 43.6524C399.2 42.7775 398.934 41.6554 398.934 40.2861V38.5744C398.934 36.5584 399.504 34.9989 400.645 33.8958C401.825 32.7547 403.803 32.1841 406.579 32.1841C408.405 32.1841 409.85 32.4313 410.916 32.9258C412.019 33.4203 412.817 34.2191 413.312 35.3222C413.844 36.4253 414.111 37.8517 414.111 39.6014V41.9977H410.63V39.2591C410.63 37.3572 410.307 36.0639 409.66 35.3792C409.014 34.6565 407.987 34.2952 406.579 34.2952C404.982 34.2952 403.898 34.6755 403.327 35.4363C402.795 36.197 402.528 37.148 402.528 38.2891V39.8296C402.528 40.8947 402.757 41.7695 403.213 42.4542C403.707 43.1389 404.392 43.7094 405.267 44.1659C406.142 44.6223 407.188 45.0978 408.405 45.5923C409.508 46.0487 410.478 46.5432 411.315 47.0757C412.19 47.5702 412.874 48.2549 413.369 49.1297C413.863 50.0046 414.111 51.2028 414.111 52.7243V54.0366C414.111 55.5581 413.863 56.8704 413.369 57.9734C412.912 59.0385 412.114 59.8563 410.973 60.4269C409.831 60.9974 408.272 61.2827 406.294 61.2827Z"/>
<path d="M278.916 46.7048C278.916 46.0962 279.125 45.5826 279.544 45.1642C279.962 44.7458 280.456 44.5366 281.027 44.5366C281.598 44.5366 282.092 44.7458 282.51 45.1642C282.929 45.5826 283.138 46.0962 283.138 46.7048C283.138 47.3134 282.929 47.8269 282.51 48.2453C282.092 48.7017 281.598 48.9299 281.027 48.9299C280.456 48.9299 279.962 48.7017 279.544 48.2453C279.125 47.8269 278.916 47.3134 278.916 46.7048ZM262.883 46.7048C262.883 46.0962 263.092 45.5826 263.511 45.1642C263.929 44.7458 264.424 44.5366 264.994 44.5366C265.565 44.5366 266.059 44.7458 266.478 45.1642C266.896 45.5826 267.105 46.0962 267.105 46.7048C267.105 47.3133 266.896 47.8269 266.478 48.2453C266.059 48.7017 265.565 48.9299 264.994 48.9299C264.424 48.9299 263.929 48.7017 263.511 48.2453C263.092 47.8269 262.883 47.3133 262.883 46.7048Z"/>
</mask>
<path d="M110.061 3.15352C135.079 1.10733 156.995 19.7883 158.949 44.8225C160.902 69.8564 142.147 91.7122 117.114 93.5725C92.2119 95.4233 70.5032 76.7811 68.5607 51.8776C66.6181 26.9745 85.1736 5.18922 110.061 3.15352ZM115.147 89.3215C137.776 88.5292 155.462 69.5106 154.62 46.8769C153.774 24.2429 134.722 6.59389 112.099 7.48849C89.5477 8.38013 71.973 27.3646 72.8135 49.9262C73.6537 72.4874 92.592 90.1112 115.147 89.3215Z" fill="black"/>
<path d="M269.819 3.14208C294.812 1.37617 316.496 20.2381 318.22 45.2448C319.94 70.2518 301.048 91.9096 276.045 93.589C251.107 95.2641 229.522 76.4209 227.801 51.4751C226.084 26.5294 244.884 4.90341 269.819 3.14208ZM275.393 89.2779C297.879 87.9919 315.103 68.7678 313.927 46.2649C312.75 23.762 293.616 6.44117 271.113 7.51016C248.459 8.58636 231 27.8869 232.186 50.5435C233.372 73.2005 252.749 90.5725 275.393 89.2779Z" fill="black"/>
<path d="M170.539 4.72788C180.868 5.69525 195.133 2.12965 203.244 10.2361C206.72 13.7128 207.992 18.8542 207.91 23.6429C207.772 31.3327 203.997 34.9382 199.026 39.7836C207.763 43.2374 216.25 49.1105 218.698 58.7629C220.592 66.2133 219.383 74.5214 215.499 81.1602C206.186 96.8226 185.364 90.8322 170.297 92.6034C170.113 84.6356 169.75 6.09354 170.539 4.72788ZM208.841 82.1095C212.799 77.157 215.031 73.2186 215.106 66.8706C215.375 44.8801 190.493 41.4633 174.921 34.5144C174.786 34.4642 174.652 34.4141 174.521 34.3642C174.203 36.6173 174.387 44.9106 174.39 47.6216L174.413 73.3026C174.413 77.5254 174.59 84.1452 174.242 88.2104C188.222 88.3773 197.293 90.8165 208.841 82.1095ZM174.35 29.8752C179.033 31.1294 189.972 35.5208 194.838 37.3903C196.47 36.1259 198.58 34.6177 199.937 33.1133C202.614 29.5707 205.082 26.2831 204.413 21.5442C203.922 18.0875 201.595 13.6292 198.787 11.6011C192.305 6.92486 181.937 9.05202 174.291 8.4436C174.537 14.513 174.603 23.7904 174.35 29.8752Z" fill="black"/>
<path d="M55.5935 4.50855C56.7375 4.54002 58.6657 4.44331 59.5102 4.98486C59.9198 8.88908 59.7451 15.5341 59.7454 19.6904L59.7225 92.1034C58.3626 92.069 56.8735 92.1602 55.5027 92.2162C55.7433 86.7647 55.5162 80.1708 55.605 74.5089C40.5043 74.698 22.5353 74.9563 7.56677 74.4473C7.88103 80.2633 7.32591 86.6874 7.7552 92.1854C6.24156 92.0553 4.67418 92.0743 3.15137 92.0645C3.35585 87.9455 3.10092 83.7059 3.22839 79.5821C4.00045 54.5757 3.20087 29.6673 3.25985 4.6377C4.68763 4.57476 6.42574 4.31613 7.51304 5.23302C7.79126 6.69407 7.67689 11.1326 7.67721 12.9615L7.67983 28.6164L7.87448 56.7153C7.87874 59.9357 8.10911 67.5973 7.4062 70.4683C23.0777 70.5594 40.0908 70.0667 55.5968 70.5765C55.2055 64.9207 55.5568 54.8209 55.5607 48.7056L55.5935 4.50855Z" fill="black"/>
<path d="M328.488 40.7521C327.879 40.7521 327.366 40.5429 326.947 40.1245C326.529 39.7061 326.32 39.2116 326.32 38.641C326.32 38.0705 326.529 37.576 326.947 37.1576C327.366 36.7392 327.879 36.53 328.488 36.53C329.096 36.53 329.61 36.7392 330.028 37.1576C330.485 37.576 330.713 38.0705 330.713 38.641C330.713 39.2116 330.485 39.7061 330.028 40.1245C329.61 40.5429 329.096 40.7521 328.488 40.7521ZM328.488 56.7849C327.879 56.7849 327.366 56.5757 326.947 56.1572C326.529 55.7388 326.32 55.2443 326.32 54.6738C326.32 54.1032 326.529 53.6087 326.947 53.1903C327.366 52.7719 327.879 52.5627 328.488 52.5627C329.096 52.5627 329.61 52.7719 330.028 53.1903C330.485 53.6087 330.713 54.1032 330.713 54.6738C330.713 55.2443 330.485 55.7388 330.028 56.1572C329.61 56.5757 329.096 56.7849 328.488 56.7849Z" fill="black"/>
<path d="M339.576 64.8202V28.6466H343.056V64.8202H339.576Z" fill="black"/>
<path d="M356.239 61.3398C355.364 61.3398 354.47 61.2066 353.557 60.9404C352.682 60.7121 351.922 60.1606 351.275 59.2857C350.666 58.3728 350.362 56.9655 350.362 55.0636V52.3249C350.362 50.423 350.933 48.9015 352.074 47.7604C353.253 46.5812 354.851 45.5352 356.867 44.6223C358.16 43.9757 359.206 43.4051 360.005 42.9106C360.841 42.4162 361.469 41.8646 361.887 41.256C362.306 40.6474 362.515 39.8296 362.515 38.8026V37.6044C362.515 36.6915 362.325 35.9878 361.945 35.4933C361.564 34.9989 361.051 34.6565 360.404 34.4663C359.795 34.2762 359.149 34.1811 358.464 34.1811C356.752 34.1811 355.63 34.6565 355.098 35.6075C354.565 36.5204 354.299 37.8897 354.299 39.7155V42.1119H351.047V39.3732C351.047 37.9658 351.237 36.7296 351.617 35.6645C351.998 34.5614 352.72 33.7056 353.786 33.097C354.851 32.4504 356.41 32.127 358.464 32.127C360.632 32.127 362.249 32.3743 363.314 32.8688C364.417 33.3633 365.14 34.0669 365.482 34.9798C365.862 35.8927 366.053 36.9768 366.053 38.232V60.9404H362.572L362.515 57.4029C362.059 58.6962 361.241 59.6851 360.062 60.3698C358.883 61.0164 357.608 61.3398 356.239 61.3398ZM357.551 58.9434C359.263 58.9434 360.499 58.3348 361.26 57.1176C362.059 55.9004 362.458 54.2838 362.458 52.2678V43.253C362.078 43.8616 361.45 44.4131 360.575 44.9076C359.7 45.4021 358.806 45.8966 357.894 46.3911C356.6 47.1518 355.592 47.9506 354.87 48.7874C354.185 49.5862 353.843 50.7083 353.843 52.1537V54.3789C353.843 55.7483 354.033 56.7562 354.413 57.4029C354.794 58.0495 355.269 58.4679 355.84 58.6581C356.41 58.8483 356.981 58.9434 357.551 58.9434Z" fill="black"/>
<path d="M382.996 64.9058C381.208 64.9058 379.877 64.6015 379.002 63.9929C378.165 63.3462 377.594 62.6425 377.29 61.8818L377.119 64.5064H374.608V28.561H378.089V38.6029C378.545 37.652 379.211 36.9483 380.086 36.4918C380.999 35.9973 382.14 35.7501 383.509 35.7501C384.955 35.7501 386.172 35.9783 387.161 36.4348C388.15 36.8912 388.891 37.633 389.386 38.66C389.88 39.687 390.128 41.1134 390.128 42.9392V56.9179C390.128 58.4774 389.976 59.7707 389.671 60.7977C389.405 61.8247 388.987 62.6425 388.416 63.2511C387.845 63.8597 387.104 64.2781 386.191 64.5064C385.316 64.7726 384.251 64.9058 382.996 64.9058ZM382.368 62.3953C383.433 62.3953 384.27 62.2431 384.879 61.9388C385.487 61.6345 385.925 61.121 386.191 60.3983C386.457 59.6376 386.59 58.5916 386.59 57.2602V43.0533C386.59 41.1514 386.267 39.8581 385.62 39.1735C385.012 38.4888 383.928 38.1465 382.368 38.1465C380.77 38.1465 379.667 38.5458 379.059 39.3446C378.45 40.1434 378.146 41.3036 378.146 42.8251V56.9179C378.146 58.8578 378.469 60.2652 379.116 61.1401C379.801 61.9769 380.885 62.3953 382.368 62.3953Z" fill="black"/>
<path d="M406.294 61.2827C404.24 61.2827 402.642 61.0355 401.501 60.541C400.36 60.0084 399.561 59.1906 399.105 58.0876C398.648 56.9464 398.42 55.444 398.42 53.5801V51.1267H402.015V54.3789C402.015 56.1667 402.319 57.4029 402.928 58.0876C403.536 58.7722 404.639 59.1146 406.237 59.1146C407.644 59.1146 408.671 58.7722 409.318 58.0876C410.003 57.4029 410.345 56.2427 410.345 54.6071V53.0096C410.345 52.1347 410.212 51.393 409.946 50.7844C409.679 50.1377 409.166 49.5482 408.405 49.0156C407.682 48.4831 406.655 47.9506 405.324 47.4181C404.069 46.9236 402.966 46.3911 402.015 45.8205C401.064 45.2499 400.303 44.5272 399.733 43.6524C399.2 42.7775 398.934 41.6554 398.934 40.2861V38.5744C398.934 36.5584 399.504 34.9989 400.645 33.8958C401.825 32.7547 403.803 32.1841 406.579 32.1841C408.405 32.1841 409.85 32.4313 410.916 32.9258C412.019 33.4203 412.817 34.2191 413.312 35.3222C413.844 36.4253 414.111 37.8517 414.111 39.6014V41.9977H410.63V39.2591C410.63 37.3572 410.307 36.0639 409.66 35.3792C409.014 34.6565 407.987 34.2952 406.579 34.2952C404.982 34.2952 403.898 34.6755 403.327 35.4363C402.795 36.197 402.528 37.148 402.528 38.2891V39.8296C402.528 40.8947 402.757 41.7695 403.213 42.4542C403.707 43.1389 404.392 43.7094 405.267 44.1659C406.142 44.6223 407.188 45.0978 408.405 45.5923C409.508 46.0487 410.478 46.5432 411.315 47.0757C412.19 47.5702 412.874 48.2549 413.369 49.1297C413.863 50.0046 414.111 51.2028 414.111 52.7243V54.0366C414.111 55.5581 413.863 56.8704 413.369 57.9734C412.912 59.0385 412.114 59.8563 410.973 60.4269C409.831 60.9974 408.272 61.2827 406.294 61.2827Z" fill="black"/>
<path d="M278.916 46.7048C278.916 46.0962 279.125 45.5826 279.544 45.1642C279.962 44.7458 280.456 44.5366 281.027 44.5366C281.598 44.5366 282.092 44.7458 282.51 45.1642C282.929 45.5826 283.138 46.0962 283.138 46.7048C283.138 47.3134 282.929 47.8269 282.51 48.2453C282.092 48.7017 281.598 48.9299 281.027 48.9299C280.456 48.9299 279.962 48.7017 279.544 48.2453C279.125 47.8269 278.916 47.3134 278.916 46.7048ZM262.883 46.7048C262.883 46.0962 263.092 45.5826 263.511 45.1642C263.929 44.7458 264.424 44.5366 264.994 44.5366C265.565 44.5366 266.059 44.7458 266.478 45.1642C266.896 45.5826 267.105 46.0962 267.105 46.7048C267.105 47.3133 266.896 47.8269 266.478 48.2453C266.059 48.7017 265.565 48.9299 264.994 48.9299C264.424 48.9299 263.929 48.7017 263.511 48.2453C263.092 47.8269 262.883 47.3133 262.883 46.7048Z" fill="white"/>
<path d="M110.061 3.15352C135.079 1.10733 156.995 19.7883 158.949 44.8225C160.902 69.8564 142.147 91.7122 117.114 93.5725C92.2119 95.4233 70.5032 76.7811 68.5607 51.8776C66.6181 26.9745 85.1736 5.18922 110.061 3.15352ZM115.147 89.3215C137.776 88.5292 155.462 69.5106 154.62 46.8769C153.774 24.2429 134.722 6.59389 112.099 7.48849C89.5477 8.38013 71.973 27.3646 72.8135 49.9262C73.6537 72.4874 92.592 90.1112 115.147 89.3215Z" stroke="black" stroke-width="6" mask="url(#path-1-outside-1_66_51)"/>
<path d="M269.819 3.14208C294.812 1.37617 316.496 20.2381 318.22 45.2448C319.94 70.2518 301.048 91.9096 276.045 93.589C251.107 95.2641 229.522 76.4209 227.801 51.4751C226.084 26.5294 244.884 4.90341 269.819 3.14208ZM275.393 89.2779C297.879 87.9919 315.103 68.7678 313.927 46.2649C312.75 23.762 293.616 6.44117 271.113 7.51016C248.459 8.58636 231 27.8869 232.186 50.5435C233.372 73.2005 252.749 90.5725 275.393 89.2779Z" stroke="black" stroke-width="6" mask="url(#path-1-outside-1_66_51)"/>
<path d="M170.539 4.72788C180.868 5.69525 195.133 2.12965 203.244 10.2361C206.72 13.7128 207.992 18.8542 207.91 23.6429C207.772 31.3327 203.997 34.9382 199.026 39.7836C207.763 43.2374 216.25 49.1105 218.698 58.7629C220.592 66.2133 219.383 74.5214 215.499 81.1602C206.186 96.8226 185.364 90.8322 170.297 92.6034C170.113 84.6356 169.75 6.09354 170.539 4.72788ZM208.841 82.1095C212.799 77.157 215.031 73.2186 215.106 66.8706C215.375 44.8801 190.493 41.4633 174.921 34.5144C174.786 34.4642 174.652 34.4141 174.521 34.3642C174.203 36.6173 174.387 44.9106 174.39 47.6216L174.413 73.3026C174.413 77.5254 174.59 84.1452 174.242 88.2104C188.222 88.3773 197.293 90.8165 208.841 82.1095ZM174.35 29.8752C179.033 31.1294 189.972 35.5208 194.838 37.3903C196.47 36.1259 198.58 34.6177 199.937 33.1133C202.614 29.5707 205.082 26.2831 204.413 21.5442C203.922 18.0875 201.595 13.6292 198.787 11.6011C192.305 6.92486 181.937 9.05202 174.291 8.4436C174.537 14.513 174.603 23.7904 174.35 29.8752Z" stroke="black" stroke-width="6" mask="url(#path-1-outside-1_66_51)"/>
<path d="M55.5935 4.50855C56.7375 4.54002 58.6657 4.44331 59.5102 4.98486C59.9198 8.88908 59.7451 15.5341 59.7454 19.6904L59.7225 92.1034C58.3626 92.069 56.8735 92.1602 55.5027 92.2162C55.7433 86.7647 55.5162 80.1708 55.605 74.5089C40.5043 74.698 22.5353 74.9563 7.56677 74.4473C7.88103 80.2633 7.32591 86.6874 7.7552 92.1854C6.24156 92.0553 4.67418 92.0743 3.15137 92.0645C3.35585 87.9455 3.10092 83.7059 3.22839 79.5821C4.00045 54.5757 3.20087 29.6673 3.25985 4.6377C4.68763 4.57476 6.42574 4.31613 7.51304 5.23302C7.79126 6.69407 7.67689 11.1326 7.67721 12.9615L7.67983 28.6164L7.87448 56.7153C7.87874 59.9357 8.10911 67.5973 7.4062 70.4683C23.0777 70.5594 40.0908 70.0667 55.5968 70.5765C55.2055 64.9207 55.5568 54.8209 55.5607 48.7056L55.5935 4.50855Z" stroke="black" stroke-width="6" mask="url(#path-1-outside-1_66_51)"/>
<path d="M328.488 40.7521C327.879 40.7521 327.366 40.5429 326.947 40.1245C326.529 39.7061 326.32 39.2116 326.32 38.641C326.32 38.0705 326.529 37.576 326.947 37.1576C327.366 36.7392 327.879 36.53 328.488 36.53C329.096 36.53 329.61 36.7392 330.028 37.1576C330.485 37.576 330.713 38.0705 330.713 38.641C330.713 39.2116 330.485 39.7061 330.028 40.1245C329.61 40.5429 329.096 40.7521 328.488 40.7521ZM328.488 56.7849C327.879 56.7849 327.366 56.5757 326.947 56.1572C326.529 55.7388 326.32 55.2443 326.32 54.6738C326.32 54.1032 326.529 53.6087 326.947 53.1903C327.366 52.7719 327.879 52.5627 328.488 52.5627C329.096 52.5627 329.61 52.7719 330.028 53.1903C330.485 53.6087 330.713 54.1032 330.713 54.6738C330.713 55.2443 330.485 55.7388 330.028 56.1572C329.61 56.5757 329.096 56.7849 328.488 56.7849Z" stroke="black" stroke-width="6" mask="url(#path-1-outside-1_66_51)"/>
<path d="M339.576 64.8202V28.6466H343.056V64.8202H339.576Z" stroke="black" stroke-width="6" mask="url(#path-1-outside-1_66_51)"/>
<path d="M356.239 61.3398C355.364 61.3398 354.47 61.2066 353.557 60.9404C352.682 60.7121 351.922 60.1606 351.275 59.2857C350.666 58.3728 350.362 56.9655 350.362 55.0636V52.3249C350.362 50.423 350.933 48.9015 352.074 47.7604C353.253 46.5812 354.851 45.5352 356.867 44.6223C358.16 43.9757 359.206 43.4051 360.005 42.9106C360.841 42.4162 361.469 41.8646 361.887 41.256C362.306 40.6474 362.515 39.8296 362.515 38.8026V37.6044C362.515 36.6915 362.325 35.9878 361.945 35.4933C361.564 34.9989 361.051 34.6565 360.404 34.4663C359.795 34.2762 359.149 34.1811 358.464 34.1811C356.752 34.1811 355.63 34.6565 355.098 35.6075C354.565 36.5204 354.299 37.8897 354.299 39.7155V42.1119H351.047V39.3732C351.047 37.9658 351.237 36.7296 351.617 35.6645C351.998 34.5614 352.72 33.7056 353.786 33.097C354.851 32.4504 356.41 32.127 358.464 32.127C360.632 32.127 362.249 32.3743 363.314 32.8688C364.417 33.3633 365.14 34.0669 365.482 34.9798C365.862 35.8927 366.053 36.9768 366.053 38.232V60.9404H362.572L362.515 57.4029C362.059 58.6962 361.241 59.6851 360.062 60.3698C358.883 61.0164 357.608 61.3398 356.239 61.3398ZM357.551 58.9434C359.263 58.9434 360.499 58.3348 361.26 57.1176C362.059 55.9004 362.458 54.2838 362.458 52.2678V43.253C362.078 43.8616 361.45 44.4131 360.575 44.9076C359.7 45.4021 358.806 45.8966 357.894 46.3911C356.6 47.1518 355.592 47.9506 354.87 48.7874C354.185 49.5862 353.843 50.7083 353.843 52.1537V54.3789C353.843 55.7483 354.033 56.7562 354.413 57.4029C354.794 58.0495 355.269 58.4679 355.84 58.6581C356.41 58.8483 356.981 58.9434 357.551 58.9434Z" stroke="black" stroke-width="6" mask="url(#path-1-outside-1_66_51)"/>
<path d="M382.996 64.9058C381.208 64.9058 379.877 64.6015 379.002 63.9929C378.165 63.3462 377.594 62.6425 377.29 61.8818L377.119 64.5064H374.608V28.561H378.089V38.6029C378.545 37.652 379.211 36.9483 380.086 36.4918C380.999 35.9973 382.14 35.7501 383.509 35.7501C384.955 35.7501 386.172 35.9783 387.161 36.4348C388.15 36.8912 388.891 37.633 389.386 38.66C389.88 39.687 390.128 41.1134 390.128 42.9392V56.9179C390.128 58.4774 389.976 59.7707 389.671 60.7977C389.405 61.8247 388.987 62.6425 388.416 63.2511C387.845 63.8597 387.104 64.2781 386.191 64.5064C385.316 64.7726 384.251 64.9058 382.996 64.9058ZM382.368 62.3953C383.433 62.3953 384.27 62.2431 384.879 61.9388C385.487 61.6345 385.925 61.121 386.191 60.3983C386.457 59.6376 386.59 58.5916 386.59 57.2602V43.0533C386.59 41.1514 386.267 39.8581 385.62 39.1735C385.012 38.4888 383.928 38.1465 382.368 38.1465C380.77 38.1465 379.667 38.5458 379.059 39.3446C378.45 40.1434 378.146 41.3036 378.146 42.8251V56.9179C378.146 58.8578 378.469 60.2652 379.116 61.1401C379.801 61.9769 380.885 62.3953 382.368 62.3953Z" stroke="black" stroke-width="6" mask="url(#path-1-outside-1_66_51)"/>
<path d="M406.294 61.2827C404.24 61.2827 402.642 61.0355 401.501 60.541C400.36 60.0084 399.561 59.1906 399.105 58.0876C398.648 56.9464 398.42 55.444 398.42 53.5801V51.1267H402.015V54.3789C402.015 56.1667 402.319 57.4029 402.928 58.0876C403.536 58.7722 404.639 59.1146 406.237 59.1146C407.644 59.1146 408.671 58.7722 409.318 58.0876C410.003 57.4029 410.345 56.2427 410.345 54.6071V53.0096C410.345 52.1347 410.212 51.393 409.946 50.7844C409.679 50.1377 409.166 49.5482 408.405 49.0156C407.682 48.4831 406.655 47.9506 405.324 47.4181C404.069 46.9236 402.966 46.3911 402.015 45.8205C401.064 45.2499 400.303 44.5272 399.733 43.6524C399.2 42.7775 398.934 41.6554 398.934 40.2861V38.5744C398.934 36.5584 399.504 34.9989 400.645 33.8958C401.825 32.7547 403.803 32.1841 406.579 32.1841C408.405 32.1841 409.85 32.4313 410.916 32.9258C412.019 33.4203 412.817 34.2191 413.312 35.3222C413.844 36.4253 414.111 37.8517 414.111 39.6014V41.9977H410.63V39.2591C410.63 37.3572 410.307 36.0639 409.66 35.3792C409.014 34.6565 407.987 34.2952 406.579 34.2952C404.982 34.2952 403.898 34.6755 403.327 35.4363C402.795 36.197 402.528 37.148 402.528 38.2891V39.8296C402.528 40.8947 402.757 41.7695 403.213 42.4542C403.707 43.1389 404.392 43.7094 405.267 44.1659C406.142 44.6223 407.188 45.0978 408.405 45.5923C409.508 46.0487 410.478 46.5432 411.315 47.0757C412.19 47.5702 412.874 48.2549 413.369 49.1297C413.863 50.0046 414.111 51.2028 414.111 52.7243V54.0366C414.111 55.5581 413.863 56.8704 413.369 57.9734C412.912 59.0385 412.114 59.8563 410.973 60.4269C409.831 60.9974 408.272 61.2827 406.294 61.2827Z" stroke="black" stroke-width="6" mask="url(#path-1-outside-1_66_51)"/>
<path d="M278.916 46.7048C278.916 46.0962 279.125 45.5826 279.544 45.1642C279.962 44.7458 280.456 44.5366 281.027 44.5366C281.598 44.5366 282.092 44.7458 282.51 45.1642C282.929 45.5826 283.138 46.0962 283.138 46.7048C283.138 47.3134 282.929 47.8269 282.51 48.2453C282.092 48.7017 281.598 48.9299 281.027 48.9299C280.456 48.9299 279.962 48.7017 279.544 48.2453C279.125 47.8269 278.916 47.3134 278.916 46.7048ZM262.883 46.7048C262.883 46.0962 263.092 45.5826 263.511 45.1642C263.929 44.7458 264.424 44.5366 264.994 44.5366C265.565 44.5366 266.059 44.7458 266.478 45.1642C266.896 45.5826 267.105 46.0962 267.105 46.7048C267.105 47.3133 266.896 47.8269 266.478 48.2453C266.059 48.7017 265.565 48.9299 264.994 48.9299C264.424 48.9299 263.929 48.7017 263.511 48.2453C263.092 47.8269 262.883 47.3133 262.883 46.7048Z" stroke="black" stroke-width="6" mask="url(#path-1-outside-1_66_51)"/>
</svg>
